Coordinates
version=1
nRows=12
nColumns=24
inDegrees=yes

Units are S.I. units (second, meters, Newtons, ...)
Angles are in degrees.

endheader
time	pelvis_tilt	pelvis_list	pelvis_rotation	pelvis_tx	pelvis_ty	pelvis_tz	hip_flexion_r	hip_adduction_r	hip_rotation_r	knee_angle_r	ankle_angle_r	subtalar_angle_r	mtp_angle_r	hip_flexion_l	hip_adduction_l	hip_rotation_l	knee_angle_l	ankle_angle_l	subtalar_angle_l	mtp_angle_l	lumbar_extension	lumbar_bending	lumbar_rotation
      1.25000000	      1.08533978	     -6.63703346	     -4.34110566	      0.00648373	      1.04631726	      0.30782672	    -21.40403618	     10.75158117	      0.83165032	     -3.93938903	      1.12080926	     -8.03525617	      7.12109145	     21.12360035	     -3.77644841	     -8.07948282	      5.91469483	     11.58060923	      3.98861717	      0.12140358	      1.47405869	     10.96025260	      4.64072803
      1.25416667	      1.06098965	     -6.57031129	     -4.30146549	      0.01283155	      1.04599070	      0.30777602	    -21.48811745	     10.65744897	      0.72899976	     -4.34053930	      0.62188154	     -8.01881792	      7.18848745	     21.04164491	     -3.66362458	     -7.96871799	      5.72437746	     12.02035585	      4.06643421	      0.17888321	      1.54713181	     10.84188721	      4.64917401
      1.25833333	      1.05459094	     -6.55354429	     -4.34509543	      0.01899924	      1.04576644	      0.30783110	    -21.55554504	     10.58454394	      0.74251682	     -4.85169363	      0.51837150	     -8.03507292	      7.20301884	     20.93017829	     -3.64022970	     -7.86459500	      5.52744316	     12.04003689	      4.09799651	      0.18994035	      1.60758730	     10.79086923	      4.65285278
      1.26250000	      1.05079158	     -6.52583331	     -4.40064064	      0.02522604	      1.04558200	      0.30789933	    -21.60516827	     10.49372692	      0.72224310	     -5.39860048	      0.34256037	     -8.04000658	      7.22024394	     20.79915233	     -3.61152987	     -7.75366170	      5.32069029	     12.08514398	      4.10381592	      0.20347920	      1.66898376	     10.71497743	      4.65940501
      1.26666667	      1.03254700	     -6.41577078	     -4.42345227	      0.03177892	      1.04540068	      0.30786005	    -21.63436440	     10.31888231	      0.52095763	     -5.91692719	     -0.26387967	     -7.97043871	      7.29164130	     20.65175246	     -3.47467786	     -7.61960311	      5.12000734	     12.24846021	      3.94717460	      0.25408329	      1.69885799	     10.55211193	      4.66341388
      1.27083333	      1.06095317	     -6.40124106	     -4.44566189	      0.03800633	      1.04529741	      0.30790965	    -21.68749652	     10.24841363	      0.52039033	     -6.51555843	     -0.39872537	     -7.96916974	      7.31034326	     20.49152329	     -3.45566185	     -7.50074907	      4.85894938	     12.22204200	      3.92732598	      0.26597850	      1.78468546	     10.47862946	      4.67198701
      1.27500000	      1.06942106	     -6.26894536	     -4.48946553	      0.04464918	      1.04523891	      0.30782446	    -21.69783611	     10.02780805	      0.23860837	     -7.11897383	     -1.04795797	     -7.84506934	      7.40443713	     20.27827909	     -3.29686932	     -7.33974971	      4.69364267	     12.12449212	      3.60488524	      0.32150793	      1.77222760	     10.30587966	      4.66421465
      1.27916667	      1.11665934	     -6.25514117	     -4.50997133	      0.05089577	      1.04522269	      0.30786517	    -21.72898446	      9.95310605	      0.22966719	     -7.78665026	     -1.19170508	     -7.83357347	      7.42818661	     20.08193350	     -3.28049179	     -7.20800070	      4.42375261	     12.05923214	      3.55189705	      0.33489377	      1.86787680	     10.21379317	      4.67421000
      1.28333333	      1.11443677	     -6.08640752	     -4.56190221	      0.05767678	      1.04523251	      0.30771188	    -21.68442891	      9.67789686	     -0.12856863	     -8.45678089	     -1.91338792	     -7.63993990	      7.54383533	     19.85022498	     -3.07896418	     -7.04172436	      4.28329987	     11.72529268	      3.06104102	      0.39470217	      1.83713368	     10.01833696	      4.66014798
      1.28750000	      1.35632200	     -5.99287633	     -4.44600823	      0.06405438	      1.04549396	      0.30734581	    -21.88670883	      9.51292342	     -0.40507226	     -9.12898277	     -2.29131897	     -7.28911052	      8.04913349	     19.35266781	     -2.90865725	     -6.17903542	      4.21748592	     11.09943280	      1.56314064	      0.65549917	      1.76575670	      9.80211918	      4.54059811
      1.29166667	      1.31254204	     -5.89026614	     -4.53394355	      0.07063237	      1.04552896	      0.30727723	    -21.73901307	      9.29989247	     -0.63206412	     -9.93567098	     -2.65005430	     -7.24602068	      8.13194499	     19.19970159	     -2.79973580	     -6.21671207	      3.99975622	     10.91147429	      1.45683307	      0.69766865	      1.76558785	      9.69437596	      4.53055203
      1.29583333	      1.35866252	     -5.76477580	     -4.54601504	      0.07727070	      1.04568905	      0.30717446	    -21.68769673	      9.08076884	     -0.88039675	    -10.69540838	     -3.35153799	     -7.01395030	      8.29577434	     18.94540629	     -2.64480805	     -6.17869752	      3.81263481	     10.41562238	      1.14718419	      0.77613270	      1.91351115	      9.45910867	      4.54668032
